<?xml version="1.0" encoding="utf-8"?>
<!-- Generator: Adobe Illustrator 21.0.2, SVG Export Plug-In . SVG Version: 6.00 Build 0)  -->
<svg version="1.1" id="Layer_1" xmlns="http://www.w3.org/2000/svg" xmlns:xlink="http://www.w3.org/1999/xlink" x="0px" y="0px"
	 viewBox="0 0 100 125" style="enable-background:new 0 0 100 125;" xml:space="preserve">
<style type="text/css">
	.st0{stroke:#231F20;stroke-width:0.25;stroke-miterlimit:10;}
</style>
<g>
	<path d="M76.3,89.4c-6.7,0-12.7-3.7-15.7-9.7l-0.1-0.1c0-0.1-4.3-5.5-10.5-5.5c-3.8,0-7.5,2-11.1,5.9c-3.2,5.2-8.8,8.4-15,8.4
		c-9.7,0-17.6-7.9-17.6-17.6s7.9-17.6,17.6-17.6l0.1,0c0.1,0,8-0.9,11.2-6.5c2-3.5,1.8-8.1-0.6-13.6c-0.1-0.1-0.1-0.2-0.2-0.4
		c-0.8-1.9-1.2-3.9-1.4-5.9c0-0.3,0-0.6,0-0.9c0-9.7,7.9-17.6,17.6-17.6s17.6,7.9,17.6,17.6c0,3.2-0.9,6.4-2.5,9.1l0,0
		c-1.4,3.7-2.5,9,0.1,13.2c2,3.3,6,5.4,11.9,6.1c0.2,0,0.4,0.1,0.6,0.1c0.3,0,0.6,0.1,0.8,0.1l0.1,0c1.7,0.3,3.3,0.8,4.8,1.6
		c6.1,3,9.8,9,9.8,15.8C93.9,81.5,86,89.4,76.3,89.4z M60.8,79l0.2,0.3c2.9,5.9,8.8,9.6,15.3,9.6c9.4,0,17.1-7.7,17.1-17.1
		c0-6.6-3.7-12.4-9.6-15.3c-1.5-0.7-3-1.2-4.6-1.5l-0.1,0c-0.3,0-0.5-0.1-0.8-0.1c-0.2,0-0.4-0.1-0.6-0.1
		c-6.1-0.7-10.2-2.9-12.3-6.3c-2.7-4.4-1.5-9.8-0.1-13.7l0.1-0.1c1.6-2.6,2.4-5.7,2.4-8.8c0-9.4-7.7-17.1-17.1-17.1
		c-9.4,0-17.1,7.7-17.1,17.1c0,0.3,0,0.6,0,0.9c0.1,2,0.5,3.9,1.3,5.8c0.1,0.1,0.1,0.2,0.1,0.3c2.5,5.7,2.7,10.5,0.6,14.1
		c-3,5.3-10,6.5-11.4,6.7v0l-0.4,0c-9.4,0-17.1,7.7-17.1,17.1s7.7,17.1,17.1,17.1c6,0,11.4-3.1,14.6-8.2c3.7-4,7.6-6.1,11.5-6.1
		C55.8,73.6,59.9,78,60.8,79L60.8,79z"/>
</g>
<g>
	<path d="M79.2,54.8c-0.3,0-0.5-0.1-0.8-0.1c-0.2,0-0.4,0-0.6-0.1l0-0.2c0.5,0,1,0.1,1.5,0.2L79.2,54.8z"/>
</g>
<g>
	<path class="st0" d="M24.2,53.4"/>
</g>
<g>
	<path d="M83.9,56.3c-1.5-0.7-3-1.2-4.7-1.5l0-0.2c2.2,0.3,3.7,0.8,4.8,1.6L83.9,56.3z"/>
</g>
<g>
	<path class="st0" d="M50.5,14.5c-6.4,0-11.6,5.2-11.6,11.6c0,6.4,5.2,11.6,11.6,11.6s11.6-5.2,11.6-11.6
		C62.1,19.7,56.9,14.5,50.5,14.5z M50.4,31.5c-3,0-5.5-2.4-5.5-5.5s2.4-5.5,5.5-5.5c3,0,5.5,2.4,5.5,5.5S53.4,31.5,50.4,31.5z"/>
</g>
<g>
	<path class="st0" d="M23.4,59.7c-6.4,0-11.6,5.2-11.6,11.7C11.8,77.8,17,83,23.4,83S35,77.8,35,71.4C35,64.9,29.9,59.7,23.4,59.7z
		 M22.9,77.2c-3,0-5.4-2.4-5.4-5.4c0-3,2.4-5.5,5.5-5.5c3,0,5.5,2.4,5.5,5.5C28.3,74.7,25.9,77.2,22.9,77.2z"/>
</g>
<g>
	<path d="M76.3,60.8c-6.4,0-11.6,5.2-11.6,11.7s5.2,11.6,11.6,11.6s11.6-5.2,11.6-11.6S82.7,60.8,76.3,60.8z M76.2,78
		c-3,0-5.5-2.4-5.5-5.5c0-3,2.4-5.5,5.5-5.5c3,0,5.5,2.4,5.5,5.5C81.7,75.6,79.2,78,76.2,78z"/>
	<path d="M76.3,84.2c-6.5,0-11.7-5.3-11.7-11.8c0-6.5,5.3-11.8,11.7-11.8C82.7,60.7,88,66,88,72.5C88,79,82.7,84.2,76.3,84.2z
		 M76.3,61c-6.3,0-11.5,5.2-11.5,11.5c0,6.3,5.1,11.5,11.5,11.5c6.3,0,11.5-5.2,11.5-11.5C87.8,66.1,82.6,61,76.3,61z M76.2,78.1
		c-3.1,0-5.6-2.5-5.6-5.6s2.5-5.6,5.6-5.6s5.6,2.5,5.6,5.6S79.3,78.1,76.2,78.1z M76.2,67.2c-2.9,0-5.3,2.4-5.3,5.3s2.4,5.3,5.3,5.3
		s5.3-2.4,5.3-5.3S79.2,67.2,76.2,67.2z"/>
</g>
<g>
	<path d="M50.3,68.6c-6.5,0-11.9-5.3-11.9-11.9c0-6.6,5.3-11.9,11.9-11.9s11.9,5.3,11.9,11.9C62.1,63.2,56.8,68.6,50.3,68.6z
		 M50.3,45.3c-6.3,0-11.4,5.1-11.4,11.4c0,6.3,5.1,11.4,11.4,11.4S61.6,63,61.6,56.7C61.6,50.4,56.5,45.3,50.3,45.3z"/>
</g>
</svg>
